<!DOCTYPE svg PUBLIC "-//W3C//DTD SVG 1.1//EN" "http://www.w3.org/Graphics/SVG/1.1/DTD/svg11.dtd">

<!-- Uploaded to: SVG Repo, www.svgrepo.com, Transformed by: SVG Repo Mixer Tools -->
<svg width="156px" height="156px" viewBox="0 0 24.00 24.00" fill="none" xmlns="http://www.w3.org/2000/svg" stroke="#000000" transform="rotate(0)">

<g id="SVGRepo_bgCarrier" stroke-width="0"/>

<g id="SVGRepo_tracerCarrier" stroke-linecap="round" stroke-linejoin="round" stroke="#030303" stroke-width="4.8"> <path d="M8.92993 2L8.95993 3.53003C8.97993 4.34003 9.64993 5 10.4599 5H13.4799C14.3099 5 14.9799 4.32 14.9799 3.5V2" stroke="#000000" stroke-width="0.6" stroke-linecap="round" stroke-linejoin="round"/> <path d="M17 17L15 19L17 21" stroke="#000000" stroke-width="0.6" stroke-miterlimit="10" stroke-linecap="round" stroke-linejoin="round"/> <path d="M20 17L22 19L20 21" stroke="#000000" stroke-width="0.6" stroke-miterlimit="10" stroke-linecap="round" stroke-linejoin="round"/> <path d="M13 22H8C4.5 22 3 20 3 17V7C3 4 4.5 2 8 2H16C19.5 2 21 4 21 7V14" stroke="#000000" stroke-width="0.6" stroke-miterlimit="10" stroke-linecap="round" stroke-linejoin="round"/> </g>

<g id="SVGRepo_iconCarrier"> <path d="M8.92993 2L8.95993 3.53003C8.97993 4.34003 9.64993 5 10.4599 5H13.4799C14.3099 5 14.9799 4.32 14.9799 3.5V2" stroke="#000000" stroke-width="0.6" stroke-linecap="round" stroke-linejoin="round"/> <path d="M17 17L15 19L17 21" stroke="#000000" stroke-width="0.6" stroke-miterlimit="10" stroke-linecap="round" stroke-linejoin="round"/> <path d="M20 17L22 19L20 21" stroke="#000000" stroke-width="0.6" stroke-miterlimit="10" stroke-linecap="round" stroke-linejoin="round"/> <path d="M13 22H8C4.5 22 3 20 3 17V7C3 4 4.5 2 8 2H16C19.5 2 21 4 21 7V14" stroke="#000000" stroke-width="0.6" stroke-miterlimit="10" stroke-linecap="round" stroke-linejoin="round"/> </g>

</svg>